<svg xmlns="http://www.w3.org/2000/svg" viewBox="0 0 326.76 514.09"><defs><style>.cls-1{fill:#1d73be;}</style></defs><title>apple-categoria@</title><g id="Capa_2" data-name="Capa 2"><g id="Capa_1-2" data-name="Capa 1"><path class="cls-1" d="M73.86,478.83l-6,18.23H60.1l19.69-58h9l19.78,58h-8l-6.19-18.23Zm19-5.85L87.19,456.3c-1.29-3.79-2.15-7.23-3-10.58H84c-.86,3.44-1.8,7-2.92,10.49L75.4,473Z"/><path class="cls-1" d="M116.6,469c0-5.33-.17-9.63-.35-13.58h6.8l.34,7.13h.17c3.1-5.07,8-8.08,14.8-8.08,10.06,0,17.63,8.51,17.63,21.16,0,15-9.12,22.36-18.92,22.36-5.51,0-10.32-2.41-12.82-6.54h-.17v22.62H116.6Zm7.48,11.1a17.08,17.08,0,0,0,.34,3.09,11.69,11.69,0,0,0,11.36,8.86c8,0,12.64-6.53,12.64-16.08,0-8.34-4.39-15.48-12.39-15.48a12.07,12.07,0,0,0-11.43,9.37,12.26,12.26,0,0,0-.52,3.1Z"/><path class="cls-1" d="M165.53,469c0-5.33-.17-9.63-.34-13.58H172l.35,7.13h.17c3.09-5.07,8-8.08,14.79-8.08,10.06,0,17.63,8.51,17.63,21.16,0,15-9.12,22.36-18.92,22.36-5.51,0-10.32-2.41-12.81-6.54H173v22.62h-7.48Zm7.48,11.1a17,17,0,0,0,.35,3.09,11.67,11.67,0,0,0,11.35,8.86c8,0,12.64-6.53,12.64-16.08,0-8.34-4.39-15.48-12.38-15.48a12.08,12.08,0,0,0-11.44,9.37A12.26,12.26,0,0,0,173,473Z"/><path class="cls-1" d="M214.47,436H222v61.06h-7.56Z"/><path class="cls-1" d="M239,477.62c.18,10.24,6.71,14.45,14.28,14.45a27.22,27.22,0,0,0,11.52-2.15l1.29,5.42a33.73,33.73,0,0,1-13.84,2.58c-12.82,0-20.47-8.43-20.47-21s7.4-22.45,19.52-22.45c13.59,0,17.2,11.95,17.2,19.61a27.48,27.48,0,0,1-.26,3.52Zm22.19-5.41c.09-4.82-2-12.3-10.49-12.3-7.65,0-11,7-11.61,12.3Z"/><path class="cls-1" d="M108.34,399C49,398.66,0,277.63,0,216,0,115.3,75.53,93.25,104.64,93.25c13.12,0,27.13,5.16,39.48,9.71,8.64,3.18,17.58,6.47,22.55,6.47,3,0,10-2.79,16.17-5.25C196,98.93,212.47,92.4,231.59,92.4h.11c14.29,0,57.59,3.13,83.62,42.23l6.1,9.16-8.78,6.62c-12.54,9.46-35.41,26.72-35.41,60.9,0,40.49,25.91,56.06,38.35,63.55,5.5,3.3,11.18,6.71,11.18,14.16,0,4.87-38.84,109.38-95.25,109.38-13.8,0-23.56-4.15-32.16-7.81s-16.22-6.9-28.63-6.9c-6.3,0-14.25,3-22.68,6.14-11.51,4.29-24.53,9.17-39.32,9.17Z"/><path class="cls-1" d="M237.63,0c1.47,53-36.44,89.8-74.31,87.49C157.08,45.18,201.18,0,237.63,0Z"/></g></g></svg>