<svg xmlns="http://www.w3.org/2000/svg" viewBox="0 0 446.6 546.59"><defs><style>.cls-1{fill:#1d73be;}</style></defs><title>aspiradoras-categoria@</title><g id="Capa_2" data-name="Capa 2"><g id="Capa_1-2" data-name="Capa 1"><path class="cls-1" d="M27.86,511.34l-6,18.23H14.1l19.7-58h9l19.78,58h-8l-6.19-18.23Zm19-5.85L41.19,488.8c-1.29-3.78-2.15-7.22-3-10.57H38c-.86,3.44-1.8,7-2.92,10.49l-5.68,16.77Z"/><path class="cls-1" d="M69.32,521.83a19.82,19.82,0,0,0,10,3c5.51,0,8.09-2.75,8.09-6.19,0-3.62-2.15-5.59-7.74-7.66-7.49-2.66-11-6.79-11-11.78C68.63,492.5,74.05,487,83,487a20.72,20.72,0,0,1,10.23,2.58l-1.89,5.5a16.19,16.19,0,0,0-8.51-2.41c-4.47,0-7,2.58-7,5.68,0,3.44,2.5,5,7.91,7C91,508.15,94.69,511.77,94.69,518c0,7.31-5.68,12.47-15.57,12.47a23.76,23.76,0,0,1-11.7-2.84Z"/><path class="cls-1" d="M104.4,501.53c0-5.33-.17-9.63-.34-13.59h6.79l.35,7.14h.17c3.1-5.07,8-8.08,14.79-8.08,10.06,0,17.63,8.51,17.63,21.15,0,15-9.11,22.36-18.92,22.36-5.5,0-10.32-2.4-12.81-6.53h-.17v22.61H104.4Zm7.49,11.1a17.19,17.19,0,0,0,.34,3.09,11.67,11.67,0,0,0,11.35,8.86c8,0,12.64-6.54,12.64-16.08,0-8.34-4.38-15.48-12.38-15.48a12.08,12.08,0,0,0-11.44,9.37,12.26,12.26,0,0,0-.51,3.1Z"/><path class="cls-1" d="M161.76,476.25a4.69,4.69,0,0,1-9.37,0,4.61,4.61,0,0,1,4.73-4.73A4.49,4.49,0,0,1,161.76,476.25Zm-8.42,53.32V487.94h7.56v41.63Z"/><path class="cls-1" d="M173.46,500.93c0-4.9-.09-9.12-.34-13h6.62l.26,8.17h.34c1.89-5.59,6.45-9.11,11.52-9.11a7.82,7.82,0,0,1,2.15.26v7.13a11.45,11.45,0,0,0-2.58-.25c-5.33,0-9.11,4-10.14,9.71a20.57,20.57,0,0,0-.35,3.53v22.19h-7.48Z"/><path class="cls-1" d="M224.2,529.57l-.6-5.25h-.26a15.49,15.49,0,0,1-12.73,6.19c-8.43,0-12.73-5.93-12.73-12,0-10.06,9-15.57,25-15.48v-.86c0-3.44-.95-9.63-9.46-9.63a20.78,20.78,0,0,0-10.84,3.09l-1.72-5a25.81,25.81,0,0,1,13.68-3.7c12.73,0,15.82,8.68,15.82,17v15.56a58.26,58.26,0,0,0,.69,10Zm-1.12-21.24c-8.25-.18-17.63,1.29-17.63,9.37,0,4.9,3.27,7.22,7.14,7.22a10.35,10.35,0,0,0,10.06-7,7.9,7.9,0,0,0,.43-2.41Z"/><path class="cls-1" d="M278.55,468.51v50.31c0,3.7.09,7.91.34,10.75H272.1l-.34-7.23h-.17c-2.33,4.65-7.4,8.17-14.2,8.17-10.06,0-17.8-8.51-17.8-21.15-.08-13.85,8.52-22.36,18.67-22.36,6.36,0,10.66,3,12.55,6.36H271V468.51ZM271,504.89a13.32,13.32,0,0,0-.34-3.19,11.14,11.14,0,0,0-10.92-8.77c-7.83,0-12.47,6.88-12.47,16.08,0,8.43,4.13,15.4,12.3,15.4a11.39,11.39,0,0,0,11.09-9,13.08,13.08,0,0,0,.34-3.27Z"/><path class="cls-1" d="M328.77,508.41c0,15.4-10.66,22.1-20.72,22.1-11.27,0-19.95-8.25-19.95-21.41,0-13.93,9.11-22.1,20.64-22.1C320.69,487,328.77,495.68,328.77,508.41Zm-33,.43c0,9.12,5.25,16,12.64,16,7.23,0,12.64-6.8,12.64-16.17,0-7.05-3.52-16-12.47-16S295.75,500.93,295.75,508.84Z"/><path class="cls-1" d="M338.32,500.93c0-4.9-.08-9.12-.34-13h6.62l.26,8.17h.34c1.89-5.59,6.45-9.11,11.53-9.11a7.87,7.87,0,0,1,2.15.26v7.13a11.57,11.57,0,0,0-2.58-.25c-5.34,0-9.12,4-10.15,9.71a21.62,21.62,0,0,0-.35,3.53v22.19h-7.48Z"/><path class="cls-1" d="M389.06,529.57l-.6-5.25h-.26a15.49,15.49,0,0,1-12.73,6.19c-8.42,0-12.72-5.93-12.72-12,0-10.06,8.94-15.57,25-15.48v-.86c0-3.44-.94-9.63-9.46-9.63a20.72,20.72,0,0,0-10.83,3.09l-1.72-5a25.77,25.77,0,0,1,13.67-3.7c12.73,0,15.82,8.68,15.82,17v15.56a59.3,59.3,0,0,0,.69,10Zm-1.12-21.24c-8.25-.18-17.63,1.29-17.63,9.37,0,4.9,3.27,7.22,7.14,7.22a10.35,10.35,0,0,0,10.06-7,7.9,7.9,0,0,0,.43-2.41Z"/><path class="cls-1" d="M406.43,521.83a19.89,19.89,0,0,0,10,3c5.5,0,8.08-2.75,8.08-6.19,0-3.62-2.15-5.59-7.74-7.66-7.48-2.66-11-6.79-11-11.78,0-6.71,5.41-12.21,14.36-12.21a20.72,20.72,0,0,1,10.23,2.58l-1.89,5.5a16.19,16.19,0,0,0-8.51-2.41c-4.48,0-7,2.58-7,5.68,0,3.44,2.49,5,7.91,7,7.23,2.75,10.92,6.37,10.92,12.56,0,7.31-5.67,12.47-15.56,12.47a23.76,23.76,0,0,1-11.7-2.84Z"/><path class="cls-1" d="M442.73,333.09l0,0A7.45,7.45,0,0,0,432.6,336l0,0A241.39,241.39,0,0,1,360,417.91,7.43,7.43,0,0,0,368.58,430a256.23,256.23,0,0,0,77.1-86.83A7.46,7.46,0,0,0,442.73,333.09Z"/><path class="cls-1" d="M419.37,312.87a7.45,7.45,0,0,0-10,3.31,209.87,209.87,0,0,1-78.28,85.21,7.44,7.44,0,0,0,7.44,12.72,224.79,224.79,0,0,0,84.16-91.23A7.45,7.45,0,0,0,419.37,312.87Z"/><path class="cls-1" d="M87.43,418.3a7.62,7.62,0,0,0-.87-.62,241.3,241.3,0,0,1-72.48-81.55A7.53,7.53,0,1,0,1,343.57a256.22,256.22,0,0,0,77,86.24,7.44,7.44,0,1,0,9.43-11.51Z"/><path class="cls-1" d="M115.28,401l.3.38A209.94,209.94,0,0,1,37.3,316.18,7.46,7.46,0,1,0,24,322.88a224.75,224.75,0,0,0,83.86,90.86A7.44,7.44,0,0,0,115.28,401Z"/><path class="cls-1" d="M310.52,181.24a97,97,0,0,0-175.28,0,95.75,95.75,0,0,0-9.33,41.55v6.79A95.3,95.3,0,0,0,132,257.47a96.88,96.88,0,0,0,22.82,34.61,81.14,81.14,0,0,0,7.84,6.87,102.64,102.64,0,0,0,9.1,6.34l2,1.19a97.55,97.55,0,0,0,97,0l2.39-1.34a101,101,0,0,0,9.4-6.2,80.92,80.92,0,0,0,7.83-6.86,97.13,97.13,0,0,0,22.83-34.68,94.85,94.85,0,0,0,6.63-27.6v-7A95.6,95.6,0,0,0,310.52,181.24ZM259.79,260a37.84,37.84,0,0,1-4,3.57c-1.56,1.19-2.9,2.16-4.39,3.13l-2.45,1.41a51.41,51.41,0,0,1-51.35,0l-2-1.11a55.17,55.17,0,0,1-4.53-3.2,40.44,40.44,0,0,1-3.8-3.35,51.65,51.65,0,0,1-16-37.66,51,51,0,0,1,5-22.32A52.11,52.11,0,1,1,259.79,260Z"/><path class="cls-1" d="M256.74,206.87a37,37,0,0,0-67.12.15,36.31,36.31,0,0,0-3.5,15.78,37.25,37.25,0,0,0,11.69,27,26.19,26.19,0,0,0,2.53,2.16,35,35,0,0,0,3,2.15l1.71,1a36.59,36.59,0,0,0,36.39,0l2.16-1.26,3-2.16a27.6,27.6,0,0,0,2.68-2.38A37.21,37.21,0,0,0,256.74,206.87ZM230.69,237.5a7.35,7.35,0,0,1-7.81,7.34,7.55,7.55,0,0,1-6.89-7.63V208.38a7.55,7.55,0,0,1,6.89-7.63,7.35,7.35,0,0,1,7.81,7.34Z"/><path class="cls-1" d="M384.73,145.81a178.65,178.65,0,0,0-322.8.07L61,148H77.63a163.72,163.72,0,0,1,291.55,0H385.7Z"/><path class="cls-1" d="M223.33,0C102.87-.54,3.88,95,.09,215.35A15,15,0,0,0,15,230.68H29.86a193.46,193.46,0,0,0,193.47,186,117.35,117.35,0,0,0,12.43-.44A193,193,0,0,0,416.81,230.68h14.88a14.88,14.88,0,0,0,14.88-15.33C442.78,95,343.79-.54,223.33,0Zm34.23,398-3.79.67-6.63,1-3.35.45-7.44.6h-5.66V386.5a7.35,7.35,0,1,0-14.7,0v15.14h-5.53l-7.44-.92-3.5-.45-6.55-1-3.87-.74-3-1.12a37.2,37.2,0,0,1,74,0Zm77-167.13a108.74,108.74,0,0,1-7.45,31.79,111.53,111.53,0,0,1-26.2,39.9,95.8,95.8,0,0,1-9.16,8,111.86,111.86,0,0,1-10.27,7.45c-1,.59-2.09,1.26-3.2,1.79a110.94,110.94,0,0,1-111.67,0l-2.83-1.64a115.35,115.35,0,0,1-10.28-7.45,96.92,96.92,0,0,1-9.15-8,111.74,111.74,0,0,1-25.69-40.05,109.19,109.19,0,0,1-7.44-32V222.8A110.11,110.11,0,0,1,122,174.93a111.67,111.67,0,0,1,201.83,0,110.25,110.25,0,0,1,10.72,47.87Zm63.95-74.42a12.93,12.93,0,0,1-12.5,6.18H369.11a13.19,13.19,0,0,1-13.18-7.44,148.82,148.82,0,0,0-265.13,0,15.84,15.84,0,0,1-13.17,8.36H61a15.38,15.38,0,0,1-14.93-15.17,14.8,14.8,0,0,1,1.31-6.14l1-2.23C94.18,43.47,209.53,2.24,306.11,48a193.42,193.42,0,0,1,92.09,92.09l1,2.3a14.88,14.88,0,0,1-1,14.07Z"/></g></g></svg>