<svg xmlns="http://www.w3.org/2000/svg" viewBox="0 0 395.17 555.01"><defs><style>.cls-1{fill:#1d73be;}</style></defs><title>auriculares-categoria@</title><g id="Capa_2" data-name="Capa 2"><g id="Capa_1-2" data-name="Capa 1"><path class="cls-1" d="M13.76,535.83l-6,18.23H0l19.69-58h9l19.78,58h-8l-6.2-18.23Zm19-5.85L27.09,513.3c-1.29-3.79-2.15-7.23-3-10.58h-.17c-.86,3.44-1.81,7-2.93,10.49L15.31,530Z"/><path class="cls-1" d="M90.56,542.71c0,4.3.08,8.08.34,11.35H84.19l-.43-6.79h-.17A15.67,15.67,0,0,1,69.83,555c-6.53,0-14.36-3.62-14.36-18.24V512.44H63v23c0,7.92,2.41,13.25,9.29,13.25a10.94,10.94,0,0,0,10-6.88A11.1,11.1,0,0,0,83,538V512.44h7.57Z"/><path class="cls-1" d="M103.11,525.42c0-4.9-.08-9.11-.34-13h6.62l.26,8.17H110c1.9-5.59,6.45-9.12,11.53-9.12a8.28,8.28,0,0,1,2.15.26v7.14a11,11,0,0,0-2.58-.26c-5.33,0-9.12,4-10.15,9.72a21.44,21.44,0,0,0-.34,3.52v22.19h-7.49Z"/><path class="cls-1" d="M140,500.74a4.69,4.69,0,0,1-9.38,0,4.61,4.61,0,0,1,4.73-4.73A4.49,4.49,0,0,1,140,500.74Zm-8.43,53.32V512.44h7.57v41.62Z"/><path class="cls-1" d="M181.37,552.51a27.89,27.89,0,0,1-12,2.41c-12.56,0-20.73-8.51-20.73-21.24s8.77-22.1,22.36-22.1a25.11,25.11,0,0,1,10.49,2.15l-1.72,5.84a17.55,17.55,0,0,0-8.77-2c-9.54,0-14.7,7-14.7,15.73,0,9.64,6.19,15.57,14.44,15.57a21.61,21.61,0,0,0,9.29-2.06Z"/><path class="cls-1" d="M225.06,542.71c0,4.3.09,8.08.34,11.35h-6.7l-.43-6.79h-.18A15.65,15.65,0,0,1,204.33,555c-6.53,0-14.36-3.62-14.36-18.24V512.44h7.57v23c0,7.92,2.41,13.25,9.29,13.25a10.94,10.94,0,0,0,10-6.88,11.1,11.1,0,0,0,.69-3.87V512.44h7.57Z"/><path class="cls-1" d="M237.62,493h7.56v61.06h-7.56Z"/><path class="cls-1" d="M281,554.06l-.6-5.25h-.26a15.5,15.5,0,0,1-12.73,6.2c-8.43,0-12.73-5.94-12.73-12,0-10.06,8.95-15.56,25-15.48v-.86c0-3.44-.95-9.63-9.46-9.63a20.7,20.7,0,0,0-10.84,3.1l-1.72-5a25.81,25.81,0,0,1,13.68-3.7c12.73,0,15.82,8.69,15.82,17v15.56a58.19,58.19,0,0,0,.69,10Zm-1.12-21.24c-8.25-.17-17.63,1.29-17.63,9.37,0,4.9,3.27,7.23,7.14,7.23a10.35,10.35,0,0,0,10.06-7,7.8,7.8,0,0,0,.43-2.41Z"/><path class="cls-1" d="M299.36,525.42c0-4.9-.08-9.11-.34-13h6.62l.26,8.17h.34c1.89-5.59,6.45-9.12,11.53-9.12a8.28,8.28,0,0,1,2.15.26v7.14a11,11,0,0,0-2.58-.26c-5.34,0-9.12,4-10.15,9.72a21.38,21.38,0,0,0-.35,3.52v22.19h-7.48Z"/><path class="cls-1" d="M330.84,534.62c.17,10.24,6.71,14.45,14.28,14.45a27.29,27.29,0,0,0,11.52-2.15l1.29,5.42a33.79,33.79,0,0,1-13.85,2.58c-12.81,0-20.46-8.43-20.46-21s7.39-22.45,19.52-22.45c13.58,0,17.2,12,17.2,19.61a27.48,27.48,0,0,1-.26,3.52ZM353,529.21c.08-4.82-2-12.3-10.49-12.3-7.66,0-11,7.05-11.61,12.3Z"/><path class="cls-1" d="M368.68,546.32a19.82,19.82,0,0,0,10,3c5.51,0,8.09-2.75,8.09-6.19,0-3.61-2.15-5.59-7.74-7.66-7.48-2.66-11-6.79-11-11.78,0-6.71,5.42-12.21,14.36-12.21a20.76,20.76,0,0,1,10.24,2.58l-1.9,5.5a16.2,16.2,0,0,0-8.51-2.4c-4.47,0-7,2.58-7,5.67,0,3.44,2.5,5,7.92,7,7.22,2.76,10.92,6.37,10.92,12.56,0,7.31-5.68,12.47-15.57,12.47a23.7,23.7,0,0,1-11.69-2.84Z"/><path class="cls-1" d="M117.94,321.36V283.43c7.94-2,13.43-8.65,13.43-11.76V238.45H94.92v27.61a18.14,18.14,0,0,0,13.43,17.44v38.3A45.19,45.19,0,0,0,153.54,367h43.73A36.74,36.74,0,0,1,234,403.73v52.4a5,5,0,0,0,3.85,4.78,4.77,4.77,0,0,0,5.74-4.71V402.6a45.19,45.19,0,0,0-45.19-45.2H154.26a36.28,36.28,0,0,1-36.32-36Z"/><path class="cls-1" d="M14.34,113.33V16.67A18.33,18.33,0,0,0,.91,34.17V95.83A18.4,18.4,0,0,0,14.34,113.33Z"/><path class="cls-1" d="M395.17,174.9V113.24a18.12,18.12,0,0,0-13.43-17.5V192.4a18.34,18.34,0,0,0,13.43-17.5Z"/><path class="cls-1" d="M278.14,362.8v88.06a5,5,0,0,0,3.85,4.78,4.77,4.77,0,0,0,5.74-4.71V362.8a18.17,18.17,0,0,0,13.43-17.31V318.07H265.67v33c-.09,3.09,5,9.64,12.47,11.7Z"/><path class="cls-1" d="M330.75,78.66c-35.88.28-65.08,30.13-65.08,66.44V308.48h35.49V213.13a7.28,7.28,0,0,1,7.18-7.21,6.39,6.39,0,0,1,2.27.37,66.14,66.14,0,0,0,62.49-12V93.73A65.86,65.86,0,0,0,330.75,78.66Z"/><path class="cls-1" d="M66.29,0A66,66,0,0,0,23.93,15V115.66a65.11,65.11,0,0,0,61.66,12h0a7.1,7.1,0,0,1,9,4.58,6.5,6.5,0,0,1,.38,2.34v95.26h36.45V66.44C131.37,30.13,102.16.28,66.29,0Z"/></g></g></svg>