<svg xmlns="http://www.w3.org/2000/svg" viewBox="0 0 418.98 555.01"><defs><style>.cls-1{fill:#1d73be;}</style></defs><title>calefaccion-categoria@</title><g id="Capa_2" data-name="Capa 2"><g id="Capa_1-2" data-name="Capa 1"><path class="cls-1" d="M50.38,552.17c-2.75,1.37-8.26,2.75-15.31,2.75-16.34,0-28.63-10.32-28.63-29.33,0-18.14,12.29-30.44,30.27-30.44,7.22,0,11.78,1.55,13.76,2.58l-1.81,6.11A27.2,27.2,0,0,0,37,501.43c-13.58,0-22.61,8.68-22.61,23.91,0,14.19,8.17,23.3,22.27,23.3a29.8,29.8,0,0,0,12.21-2.41Z"/><path class="cls-1" d="M81.94,554.06l-.6-5.25h-.26A15.5,15.5,0,0,1,68.35,555c-8.42,0-12.72-5.94-12.72-12,0-10.06,8.94-15.56,25-15.48v-.86c0-3.44-.94-9.63-9.46-9.63a20.64,20.64,0,0,0-10.83,3.1l-1.72-5a25.8,25.8,0,0,1,13.67-3.7c12.73,0,15.82,8.69,15.82,17v15.56a59.22,59.22,0,0,0,.69,10Zm-1.11-21.24c-8.26-.17-17.64,1.29-17.64,9.37,0,4.9,3.27,7.23,7.14,7.23a10.35,10.35,0,0,0,10.06-7,7.81,7.81,0,0,0,.44-2.41Z"/><path class="cls-1" d="M100.35,493h7.57v61.06h-7.57Z"/><path class="cls-1" d="M124.86,534.62c.17,10.24,6.7,14.45,14.27,14.45a27.3,27.3,0,0,0,11.53-2.15l1.29,5.42a33.83,33.83,0,0,1-13.85,2.58c-12.81,0-20.47-8.43-20.47-21s7.4-22.45,19.52-22.45c13.59,0,17.2,12,17.2,19.61a29.93,29.93,0,0,1-.25,3.52ZM147,529.21c.09-4.82-2-12.3-10.49-12.3-7.65,0-11,7.05-11.61,12.3Z"/><path class="cls-1" d="M164.5,554.06V518.2h-5.85v-5.76h5.85v-2c0-5.85,1.29-11.18,4.82-14.54a14.49,14.49,0,0,1,10.15-3.87,17.64,17.64,0,0,1,6.45,1.21l-1,5.85a11.21,11.21,0,0,0-4.81-.95c-6.45,0-8.09,5.68-8.09,12v2.24h10.07v5.76H172v35.86Z"/><path class="cls-1" d="M211.89,554.06l-.61-5.25H211A15.52,15.52,0,0,1,198.3,555c-8.43,0-12.73-5.94-12.73-12,0-10.06,8.94-15.56,25-15.48v-.86c0-3.44-.95-9.63-9.46-9.63a20.67,20.67,0,0,0-10.84,3.1l-1.72-5a25.8,25.8,0,0,1,13.67-3.7c12.73,0,15.83,8.69,15.83,17v15.56a58.19,58.19,0,0,0,.69,10Zm-1.12-21.24c-8.26-.17-17.63,1.29-17.63,9.37,0,4.9,3.27,7.23,7.14,7.23a10.36,10.36,0,0,0,10.06-7,7.8,7.8,0,0,0,.43-2.41Z"/><path class="cls-1" d="M260,552.51A27.89,27.89,0,0,1,248,554.92c-12.56,0-20.73-8.51-20.73-21.24s8.77-22.1,22.36-22.1a25.15,25.15,0,0,1,10.49,2.15l-1.72,5.84a17.55,17.55,0,0,0-8.77-2c-9.55,0-14.71,7-14.71,15.73,0,9.64,6.2,15.57,14.45,15.57a21.61,21.61,0,0,0,9.29-2.06Z"/><path class="cls-1" d="M298,552.51a27.89,27.89,0,0,1-12,2.41c-12.56,0-20.73-8.51-20.73-21.24s8.77-22.1,22.36-22.1a25.15,25.15,0,0,1,10.49,2.15l-1.72,5.84a17.55,17.55,0,0,0-8.77-2c-9.54,0-14.7,7-14.7,15.73,0,9.64,6.19,15.57,14.44,15.57a21.61,21.61,0,0,0,9.29-2.06Z"/><path class="cls-1" d="M315.26,500.74a4.69,4.69,0,0,1-9.38,0,4.61,4.61,0,0,1,4.73-4.73A4.49,4.49,0,0,1,315.26,500.74Zm-8.43,53.32V512.44h7.57v41.62Z"/><path class="cls-1" d="M364.62,532.9c0,15.4-10.66,22.11-20.73,22.11-11.26,0-19.95-8.26-19.95-21.42,0-13.93,9.12-22.1,20.64-22.1C356.54,511.49,364.62,520.18,364.62,532.9Zm-33,.43c0,9.12,5.24,16,12.64,16,7.22,0,12.64-6.79,12.64-16.17,0-7-3.53-16-12.47-16S331.6,525.42,331.6,533.33Zm24-38.87-10.49,12.3h-5.42l7.57-12.3Z"/><path class="cls-1" d="M374.17,523.7c0-4.3-.09-7.82-.35-11.26h6.71l.43,6.88h.17a15.31,15.31,0,0,1,13.76-7.83c5.76,0,14.71,3.44,14.71,17.72v24.85H402v-24c0-6.71-2.49-12.3-9.63-12.3a10.75,10.75,0,0,0-10.15,7.74,10.92,10.92,0,0,0-.52,3.52v25h-7.56Z"/><path class="cls-1" d="M142.42,63.52c-7.82-15.82-14-28.31-.38-48.74A9.51,9.51,0,0,0,126.2,4.24C106.48,33.78,117,55,125.36,72c7.87,15.92,13.56,27.42.84,46.51A9.51,9.51,0,1,0,142,129C160.85,100.8,150.65,80.12,142.42,63.52Z"/><path class="cls-1" d="M218.27,63.52c-7.85-15.82-14-28.31-.4-48.74A9.51,9.51,0,0,0,202,4.24C182.32,33.8,192.8,55,201.19,72c7.86,15.92,13.56,27.42.84,46.49A9.52,9.52,0,1,0,217.87,129C236.7,100.8,226.49,80.12,218.27,63.52Z"/><path class="cls-1" d="M294.1,63.52c-7.85-15.82-14-28.31-.4-48.74A9.51,9.51,0,0,0,277.86,4.24C258.15,33.8,268.62,55,277,72c7.86,15.92,13.55,27.42.84,46.49A9.52,9.52,0,1,0,293.7,129C312.53,100.8,302.32,80.12,294.1,63.52Z"/><path class="cls-1" d="M371.37,152.38H47.61A47.63,47.63,0,0,0,0,199.92V371a47.62,47.62,0,0,0,47.61,47.53H371.37A47.62,47.62,0,0,0,419,371V199.92A47.63,47.63,0,0,0,371.37,152.38Zm-.17,247.93H47.78a28.55,28.55,0,0,1-28.56-28.56V200.16A28.56,28.56,0,0,1,47.78,171.6H371.2a28.56,28.56,0,0,1,28.56,28.56V371.75A28.56,28.56,0,0,1,371.2,400.31Z"/><path class="cls-1" d="M56.7,199.28V371.84a9.61,9.61,0,1,0,19.22.2v-173a9.61,9.61,0,1,0-19.22.2Z"/><path class="cls-1" d="M114.35,199.28V371.84a9.61,9.61,0,1,0,19.22.2v-173a9.61,9.61,0,1,0-19.22.2Z"/><path class="cls-1" d="M171.05,199.28V371.84a9.61,9.61,0,1,0,19.22.2v-173a9.61,9.61,0,1,0-19.22.2Z"/><path class="cls-1" d="M227.75,199.27V371.84A9.61,9.61,0,1,0,247,372v-173a9.61,9.61,0,1,0-19.22.19Z"/><path class="cls-1" d="M285.4,199.27V371.84a9.61,9.61,0,1,0,19.22.2v-173a9.61,9.61,0,1,0-19.22.19Z"/><path class="cls-1" d="M342.1,199.27V371.84a9.61,9.61,0,1,0,19.22.2v-173a9.61,9.61,0,1,0-19.22.19Z"/><path class="cls-1" d="M75.92,409.32v38.05a9.61,9.61,0,1,0,19.21.19V409.13a9.61,9.61,0,1,0-19.21.19Z"/><path class="cls-1" d="M322.88,409.32v38.05a9.61,9.61,0,1,0,19.22.19V409.13a9.61,9.61,0,1,0-19.22.19Z"/></g></g></svg>