<svg xmlns="http://www.w3.org/2000/svg" viewBox="0 0 468.32 565.01"><defs><style>.cls-1{fill:#1d73be;}</style></defs><title>consolas-categoria@</title><g id="Capa_2" data-name="Capa 2"><g id="Capa_1-2" data-name="Capa 1"><path class="cls-1" d="M120.75,562.17c-2.75,1.38-8.25,2.76-15.31,2.76-16.34,0-28.63-10.32-28.63-29.33,0-18.15,12.29-30.44,30.27-30.44,7.22,0,11.78,1.54,13.76,2.58l-1.81,6.1a27.34,27.34,0,0,0-11.69-2.41c-13.59,0-22.62,8.69-22.62,23.91,0,14.19,8.17,23.31,22.27,23.31a30,30,0,0,0,12.21-2.41Z"/><path class="cls-1" d="M166.59,542.91c0,15.39-10.66,22.1-20.73,22.1-11.26,0-20-8.25-20-21.41,0-13.93,9.12-22.1,20.64-22.1C158.51,521.5,166.59,530.18,166.59,542.91Zm-33,.43c0,9.12,5.24,16,12.64,16,7.22,0,12.64-6.8,12.64-16.17,0-7-3.53-16-12.47-16S133.57,535.43,133.57,543.34Z"/><path class="cls-1" d="M176.14,533.71c0-4.3-.09-7.83-.35-11.27h6.71l.43,6.88h.17a15.32,15.32,0,0,1,13.76-7.82c5.76,0,14.71,3.44,14.71,17.71v24.86H204v-24c0-6.71-2.49-12.3-9.63-12.3a10.76,10.76,0,0,0-10.15,7.74,11,11,0,0,0-.52,3.53v25h-7.56Z"/><path class="cls-1" d="M222.83,556.33a19.86,19.86,0,0,0,10,3c5.5,0,8.08-2.76,8.08-6.2,0-3.61-2.15-5.59-7.74-7.65-7.48-2.67-11-6.79-11-11.78,0-6.71,5.41-12.21,14.36-12.21a20.72,20.72,0,0,1,10.23,2.58l-1.89,5.5a16.22,16.22,0,0,0-8.51-2.41c-4.48,0-7,2.58-7,5.68,0,3.44,2.49,5,7.91,7,7.23,2.75,10.92,6.36,10.92,12.56,0,7.31-5.67,12.47-15.56,12.47a23.74,23.74,0,0,1-11.7-2.84Z"/><path class="cls-1" d="M295.59,542.91c0,15.39-10.67,22.1-20.73,22.1-11.26,0-20-8.25-20-21.41,0-13.93,9.12-22.1,20.64-22.1C287.5,521.5,295.59,530.18,295.59,542.91Zm-33,.43c0,9.12,5.25,16,12.65,16,7.22,0,12.64-6.8,12.64-16.17,0-7-3.53-16-12.47-16S262.56,535.43,262.56,543.34Z"/><path class="cls-1" d="M305.14,503h7.56v61.06h-7.56Z"/><path class="cls-1" d="M348.48,564.07l-.6-5.25h-.26A15.5,15.5,0,0,1,334.89,565c-8.43,0-12.73-5.93-12.73-12,0-10.06,8.95-15.57,25-15.48v-.86c0-3.44-.95-9.63-9.46-9.63a20.78,20.78,0,0,0-10.84,3.09l-1.72-5a25.9,25.9,0,0,1,13.68-3.69c12.72,0,15.82,8.68,15.82,17v15.57a58.26,58.26,0,0,0,.69,10Zm-1.12-21.25c-8.26-.17-17.63,1.29-17.63,9.38,0,4.9,3.27,7.22,7.14,7.22a10.36,10.36,0,0,0,10.06-7,7.9,7.9,0,0,0,.43-2.41Z"/><path class="cls-1" d="M365.85,556.33a19.82,19.82,0,0,0,10,3c5.51,0,8.09-2.76,8.09-6.2,0-3.61-2.15-5.59-7.74-7.65-7.48-2.67-11-6.79-11-11.78,0-6.71,5.42-12.21,14.36-12.21a20.76,20.76,0,0,1,10.24,2.58l-1.9,5.5a16.19,16.19,0,0,0-8.51-2.41c-4.47,0-7,2.58-7,5.68,0,3.44,2.49,5,7.91,7,7.22,2.75,10.92,6.36,10.92,12.56,0,7.31-5.68,12.47-15.57,12.47A23.72,23.72,0,0,1,364,562.09Z"/><path class="cls-1" d="M42.09,468.33c22.41,0,49-16.64,81.22-50.89,18.78-20,45.6-31.43,71.94-31.43h77.82c26.34,0,53.16,11.45,71.94,31.43,32.25,34.25,58.81,50.89,81.23,50.89,14.76,0,26.78-8.47,33.82-23.84,5.27-11.51,8.26-27.12,8.26-46.36,0-79.55-51.47-232.57-130.25-232.57-23.8,0-34.9,7.59-44.71,14.27-7.68,5.24-15.16,10.15-29.45,12.74,6.2-9.74,11.41-21.44,11.41-33.87,0-29.38-28.83-55.47-32.1-58.32-5.91-5.21-22.78-24.24-22.78-38.63S237.31,29.24,243.22,24A13.72,13.72,0,0,0,225.13,3.4c-3.3,2.88-32.13,29-32.13,58.35s28.83,56.38,32.1,59.24c5.91,5.21,22.78,23.33,22.78,37.72,0,12.13-11.95,26.84-19.25,34.3H207.39c-17-2.68-24.52-7.78-32.42-13.17-9.81-6.69-20.92-14.27-44.72-14.27C51.47,165.57,0,318.58,0,398.13,0,461.48,29.53,468.33,42.09,468.33Zm302-137.74a13.74,13.74,0,1,1,13.73-13.74A13.74,13.74,0,0,1,344.05,330.59Zm27.47-54.94a13.74,13.74,0,1,1-13.74,13.73A13.74,13.74,0,0,1,371.52,275.65Zm-27.47-27.48a13.74,13.74,0,1,1-13.74,13.74A13.74,13.74,0,0,1,344.05,248.17Zm-27.47,27.48a13.74,13.74,0,1,1-13.74,13.73A13.73,13.73,0,0,1,316.58,275.65ZM207.16,276h53.58a13.77,13.77,0,0,1,13.91,12.9A13.5,13.5,0,0,1,261.16,303H207.58a13.79,13.79,0,0,1-13.91-12.91A13.49,13.49,0,0,1,207.16,276ZM97.6,276h13.08V262.93A13.77,13.77,0,0,1,123.59,249a13.49,13.49,0,0,1,14.09,13.49V276h13.08a13.77,13.77,0,0,1,13.91,12.9A13.5,13.5,0,0,1,151.18,303h-13.5v13.07A13.77,13.77,0,0,1,124.78,330a13.49,13.49,0,0,1-14.1-13.48V303H97.18a13.5,13.5,0,0,1-13.49-14.1A13.78,13.78,0,0,1,97.6,276Z"/></g></g></svg>