<svg xmlns="http://www.w3.org/2000/svg" viewBox="0 0 453.53 553.01"><defs><style>.cls-1{fill:#1d73be;}</style></defs><title>movilidad-categoria@</title><g id="Capa_2" data-name="Capa 2"><g id="Capa_1-2" data-name="Capa 1"><path class="cls-1" d="M409.87,343.08,385.26,47.66A56.73,56.73,0,0,0,371.51,14.9C363,5.29,352,0,340.58,0h-28.1a13.52,13.52,0,0,0-13.55,11.77,13.29,13.29,0,0,0,13.2,14.8h28.45c7.66,0,17,9.54,18.14,23.23l19.66,235.9a112.48,112.48,0,0,0-92.9,97.82H168.1S113.74,284.61,56,284.61A111.92,111.92,0,0,0,7.59,295.48a13.28,13.28,0,1,0,11.4,24,85.63,85.63,0,0,1,37-8.3c43.09,0,85.31,73.23,85.31,73.23H110.35a56,56,0,1,0,0,26.57H300.2a11,11,0,0,0,11-11.13,86.22,86.22,0,0,1,69.5-86.9l2.55,30.59c-32.68,8.63-53.75,46.11-34.18,83.42a45.73,45.73,0,0,0,19.29,19.24c42.49,22.21,85.18-8.26,85.18-48.51a56.08,56.08,0,0,0-43.66-54.61Z"/><path class="cls-1" d="M103.56,526.6c-.43-8.08-.94-17.8-.86-25h-.25c-2,6.79-4.39,14-7.31,22L84.9,551.72H79.23l-9.38-27.61c-2.75-8.17-5.07-15.65-6.71-22.53H63c-.17,7.22-.6,16.94-1.11,25.63l-1.55,24.85H53.17l4-58h9.55l9.89,28c2.4,7.14,4.38,13.5,5.84,19.52h.26c1.46-5.84,3.53-12.21,6.11-19.52l10.32-28h9.54l3.62,58H105Z"/><path class="cls-1" d="M161.78,530.9c0,15.4-10.66,22.11-20.72,22.11-11.27,0-20-8.26-20-21.42,0-13.93,9.11-22.1,20.64-22.1C153.7,509.49,161.78,518.18,161.78,530.9Zm-33,.43c0,9.12,5.25,16,12.64,16,7.23,0,12.64-6.79,12.64-16.17,0-7-3.52-16-12.46-16S128.76,523.42,128.76,531.33Z"/><path class="cls-1" d="M173.65,510.44l8.17,23.39a105.72,105.72,0,0,1,3.36,10.66h.26c.94-3.44,2.15-6.88,3.52-10.66L197,510.44H205l-16.34,41.62h-7.23l-15.82-41.62Z"/><path class="cls-1" d="M220.52,498.74a4.69,4.69,0,0,1-9.37,0,4.61,4.61,0,0,1,4.73-4.73A4.49,4.49,0,0,1,220.52,498.74Zm-8.43,53.32V510.44h7.57v41.62Z"/><path class="cls-1" d="M232.22,491h7.57v61.06h-7.57Z"/><path class="cls-1" d="M260.94,498.74a4.69,4.69,0,0,1-9.37,0A4.61,4.61,0,0,1,256.3,494,4.49,4.49,0,0,1,260.94,498.74Zm-8.43,53.32V510.44h7.57v41.62Z"/><path class="cls-1" d="M308.58,491v50.31c0,3.7.09,7.91.35,10.75h-6.8l-.34-7.22h-.17c-2.32,4.64-7.4,8.17-14.19,8.17-10.06,0-17.8-8.52-17.8-21.16-.09-13.85,8.51-22.36,18.66-22.36,6.36,0,10.66,3,12.55,6.36H301V491ZM301,527.38a13.19,13.19,0,0,0-.35-3.18,11.13,11.13,0,0,0-10.92-8.78c-7.83,0-12.47,6.88-12.47,16.09,0,8.42,4.13,15.39,12.3,15.39a11.37,11.37,0,0,0,11.09-9,13,13,0,0,0,.35-3.27Z"/><path class="cls-1" d="M344.19,552.06l-.6-5.25h-.26A15.51,15.51,0,0,1,330.6,553c-8.43,0-12.73-5.94-12.73-12,0-10.06,8.95-15.56,25-15.48v-.86c0-3.44-.95-9.63-9.46-9.63a20.7,20.7,0,0,0-10.84,3.1l-1.72-5a25.81,25.81,0,0,1,13.68-3.7c12.72,0,15.82,8.69,15.82,17v15.56a58.19,58.19,0,0,0,.69,10Zm-1.12-21.24c-8.26-.17-17.63,1.29-17.63,9.37,0,4.9,3.27,7.23,7.14,7.23a10.35,10.35,0,0,0,10.06-7,7.8,7.8,0,0,0,.43-2.41Z"/><path class="cls-1" d="M398.54,491v50.31c0,3.7.09,7.91.34,10.75h-6.79l-.34-7.22h-.18c-2.32,4.64-7.39,8.17-14.19,8.17-10.06,0-17.8-8.52-17.8-21.16-.08-13.85,8.52-22.36,18.66-22.36,6.37,0,10.67,3,12.56,6.36H391V491ZM391,527.38a13.18,13.18,0,0,0-.34-3.18,11.14,11.14,0,0,0-10.92-8.78c-7.83,0-12.47,6.88-12.47,16.09,0,8.42,4.12,15.39,12.29,15.39a11.38,11.38,0,0,0,11.1-9,13,13,0,0,0,.34-3.27Z"/></g></g></svg>