<svg xmlns="http://www.w3.org/2000/svg" viewBox="0 0 486.01 434.01"><defs><style>.cls-1{fill:#1d73be;}</style></defs><title>ordenadores-categoria@</title><g id="Capa_2" data-name="Capa 2"><g id="Capa_1-2" data-name="Capa 1"><path class="cls-1" d="M54.86,403.48C54.86,423.43,42.74,434,28,434c-15.31,0-26.06-11.87-26.06-29.42,0-18.4,11.44-30.44,26.92-30.44C44.63,374.15,54.86,386.28,54.86,403.48Zm-45,.94c0,12.39,6.7,23.48,18.49,23.48S47,417,47,403.82c0-11.52-6-23.56-18.49-23.56S9.89,391.69,9.89,404.42Z"/><path class="cls-1" d="M64.33,404.42c0-4.9-.09-9.11-.35-13H70.6l.26,8.17h.34c1.9-5.59,6.45-9.12,11.53-9.12a8.28,8.28,0,0,1,2.15.26v7.14a11,11,0,0,0-2.58-.26c-5.33,0-9.12,4-10.15,9.72a21.44,21.44,0,0,0-.34,3.52v22.19H64.33Z"/><path class="cls-1" d="M127.53,372v50.31c0,3.7.09,7.91.35,10.75h-6.79l-.35-7.22h-.17c-2.32,4.64-7.4,8.17-14.19,8.17-10.06,0-17.8-8.52-17.8-21.16-.09-13.85,8.51-22.36,18.66-22.36,6.36,0,10.66,3,12.55,6.36H120V372ZM120,408.38a13.19,13.19,0,0,0-.35-3.18,11.13,11.13,0,0,0-10.92-8.78c-7.82,0-12.47,6.88-12.47,16.09,0,8.42,4.13,15.39,12.3,15.39a11.37,11.37,0,0,0,11.09-9,13,13,0,0,0,.35-3.27Z"/><path class="cls-1" d="M144.3,413.62c.18,10.24,6.71,14.45,14.28,14.45a27.22,27.22,0,0,0,11.52-2.15l1.29,5.42a33.73,33.73,0,0,1-13.84,2.58c-12.82,0-20.47-8.43-20.47-21s7.4-22.45,19.52-22.45c13.59,0,17.2,11.95,17.2,19.61a27.48,27.48,0,0,1-.26,3.52Zm22.19-5.41c.09-4.82-2-12.3-10.49-12.3-7.65,0-11,7-11.61,12.3Z"/><path class="cls-1" d="M183.18,402.7c0-4.3-.09-7.82-.35-11.26h6.71l.43,6.88h.17a15.31,15.31,0,0,1,13.76-7.83c5.76,0,14.71,3.44,14.71,17.72v24.85H211v-24c0-6.71-2.49-12.3-9.63-12.3a10.75,10.75,0,0,0-10.15,7.74,10.92,10.92,0,0,0-.52,3.52v25h-7.56Z"/><path class="cls-1" d="M254,433.06l-.6-5.25h-.26a15.49,15.49,0,0,1-12.72,6.2c-8.43,0-12.73-5.94-12.73-12,0-10.06,8.94-15.56,25-15.48v-.86c0-3.44-.94-9.63-9.46-9.63a20.64,20.64,0,0,0-10.83,3.1l-1.72-5a25.8,25.8,0,0,1,13.67-3.7c12.73,0,15.82,8.69,15.82,17v15.56a59.22,59.22,0,0,0,.69,10Zm-1.11-21.24c-8.26-.17-17.63,1.29-17.63,9.37,0,4.9,3.26,7.23,7.13,7.23a10.37,10.37,0,0,0,10.07-7,8.1,8.1,0,0,0,.43-2.41Z"/><path class="cls-1" d="M308.3,372v50.31c0,3.7.09,7.91.35,10.75h-6.8l-.34-7.22h-.17c-2.32,4.64-7.4,8.17-14.19,8.17-10.06,0-17.8-8.52-17.8-21.16-.09-13.85,8.51-22.36,18.66-22.36,6.36,0,10.66,3,12.55,6.36h.18V372Zm-7.56,36.38a13.19,13.19,0,0,0-.35-3.18,11.13,11.13,0,0,0-10.92-8.78c-7.83,0-12.47,6.88-12.47,16.09,0,8.42,4.13,15.39,12.3,15.39a11.37,11.37,0,0,0,11.09-9,13,13,0,0,0,.35-3.27Z"/><path class="cls-1" d="M358.53,411.9c0,15.4-10.67,22.11-20.73,22.11-11.26,0-19.95-8.26-19.95-21.42,0-13.93,9.12-22.1,20.64-22.1C350.44,390.49,358.53,399.18,358.53,411.9Zm-33,.43c0,9.12,5.25,16,12.65,16,7.22,0,12.64-6.79,12.64-16.17,0-7.05-3.53-16-12.47-16S325.5,404.42,325.5,412.33Z"/><path class="cls-1" d="M368.08,404.42c0-4.9-.09-9.11-.35-13h6.62l.26,8.17H375c1.89-5.59,6.44-9.12,11.52-9.12a8.28,8.28,0,0,1,2.15.26v7.14a11,11,0,0,0-2.58-.26c-5.33,0-9.12,4-10.15,9.72a21.44,21.44,0,0,0-.34,3.52v22.19h-7.48Z"/><path class="cls-1" d="M399.55,413.62c.17,10.24,6.71,14.45,14.28,14.45a27.25,27.25,0,0,0,11.52-2.15l1.29,5.42a33.77,33.77,0,0,1-13.84,2.58c-12.82,0-20.47-8.43-20.47-21s7.39-22.45,19.52-22.45c13.59,0,17.2,11.95,17.2,19.61a27.48,27.48,0,0,1-.26,3.52Zm22.19-5.41c.09-4.82-2-12.3-10.49-12.3-7.66,0-11,7-11.61,12.3Z"/><path class="cls-1" d="M437.39,425.32a19.86,19.86,0,0,0,10,3c5.5,0,8.08-2.75,8.08-6.19,0-3.61-2.15-5.59-7.74-7.66-7.48-2.66-11-6.79-11-11.78,0-6.71,5.42-12.21,14.36-12.21a20.73,20.73,0,0,1,10.24,2.58l-1.89,5.5a16.27,16.27,0,0,0-8.52-2.4c-4.47,0-7,2.58-7,5.67,0,3.44,2.49,5,7.91,7.05,7.22,2.76,10.92,6.37,10.92,12.56,0,7.31-5.68,12.47-15.57,12.47a23.72,23.72,0,0,1-11.69-2.84Z"/><path class="cls-1" d="M441,252V18A18,18,0,0,0,423,0H63A18,18,0,0,0,45,18V252L0,306a27,27,0,0,0,27,27H459a27,27,0,0,0,27-27Zm-162,72H207a4.5,4.5,0,0,1,0-9h72a4.5,4.5,0,1,1,0,9ZM168.77,306l13.73-16H303.37l13.75,16Zm247-85.73A15.76,15.76,0,0,1,400.06,236H85.7A15.76,15.76,0,0,1,70,220.29V31.73A15.75,15.75,0,0,1,85.71,16H400.07a15.77,15.77,0,0,1,15.71,15.73Z"/></g></g></svg>