<svg xmlns="http://www.w3.org/2000/svg" viewBox="0 0 594.83 525.29"><defs><style>.cls-1{fill:#1d73be;}</style></defs><title>robococina-categoria@</title><g id="Capa_2" data-name="Capa 2"><g id="Capa_1-2" data-name="Capa 1"><path class="cls-1" d="M0,467.82a76.65,76.65,0,0,1,14.2-1.19c7.9,0,13,1.45,16.57,4.68a14.27,14.27,0,0,1,4.51,10.88c0,7.56-4.76,12.58-10.8,14.62v.25c4.42,1.53,7.06,5.61,8.42,11.56,1.87,8,3.23,13.52,4.42,15.73H29.67c-.94-1.62-2.21-6.55-3.83-13.69-1.7-7.9-4.76-10.88-11.47-11.13h-7v24.82H0Zm7.39,26.1H15c7.91,0,12.92-4.34,12.92-10.88,0-7.4-5.35-10.63-13.17-10.71a30.53,30.53,0,0,0-7.32.68Z"/><path class="cls-1" d="M83.05,503.44c0,15.21-10.54,21.85-20.49,21.85-11.14,0-19.72-8.17-19.72-21.17,0-13.77,9-21.85,20.4-21.85C75.06,482.27,83.05,490.86,83.05,503.44Zm-32.65.42c0,9,5.19,15.81,12.5,15.81,7.14,0,12.5-6.71,12.5-16,0-7-3.49-15.81-12.33-15.81S50.4,496,50.4,503.86Z"/><path class="cls-1" d="M92.14,524.35c.17-2.81.34-7,.34-10.63V464h7.39v25.84H100c2.64-4.59,7.4-7.57,14-7.57,10.2,0,17.43,8.5,17.34,21,0,14.7-9.26,22-18.45,22-5.95,0-10.71-2.3-13.77-7.74h-.25l-.34,6.8Zm7.73-16.49a14.05,14.05,0,0,0,.34,2.72,11.55,11.55,0,0,0,11.23,8.75c7.82,0,12.49-6.37,12.49-15.81,0-8.24-4.25-15.3-12.24-15.3a11.93,11.93,0,0,0-11.39,9.18,14.71,14.71,0,0,0-.43,3.06Z"/><path class="cls-1" d="M178.08,503.44c0,15.21-10.55,21.85-20.49,21.85-11.14,0-19.72-8.17-19.72-21.17,0-13.77,9-21.85,20.4-21.85C170.08,482.27,178.08,490.86,178.08,503.44Zm-32.65.42c0,9,5.19,15.81,12.5,15.81,7.14,0,12.49-6.71,12.49-16,0-7-3.48-15.81-12.32-15.81S145.43,496,145.43,503.86Z"/><path class="cls-1" d="M196.52,471.39v11.82h10.71v5.69H196.52v22.19c0,5.1,1.44,8,5.61,8a16.82,16.82,0,0,0,4.33-.51l.34,5.61a18.4,18.4,0,0,1-6.63,1c-3.48,0-6.29-1.11-8.07-3.15-2.13-2.21-2.89-5.86-2.89-10.71V488.9h-6.38v-5.69h6.38v-9.86Z"/><path class="cls-1" d="M214.62,516.7a19.65,19.65,0,0,0,9.86,3c5.44,0,8-2.72,8-6.12,0-3.57-2.12-5.52-7.65-7.56-7.39-2.64-10.88-6.72-10.88-11.65,0-6.63,5.36-12.07,14.2-12.07a20.51,20.51,0,0,1,10.11,2.55l-1.87,5.44a16,16,0,0,0-8.41-2.38c-4.42,0-6.89,2.55-6.89,5.61,0,3.4,2.47,4.93,7.82,7,7.14,2.72,10.8,6.29,10.8,12.41,0,7.23-5.61,12.33-15.39,12.33a23.48,23.48,0,0,1-11.56-2.81Z"/><path class="cls-1" d="M302.85,464v49.72c0,3.66.09,7.82.34,10.63h-6.71l-.34-7.14H296c-2.3,4.59-7.31,8.08-14,8.08-9.94,0-17.6-8.42-17.6-20.92-.08-13.68,8.42-22.1,18.45-22.1,6.29,0,10.54,3,12.41,6.29h.17V464ZM295.37,500a12.91,12.91,0,0,0-.34-3.14,11,11,0,0,0-10.79-8.67c-7.74,0-12.33,6.8-12.33,15.89,0,8.33,4.08,15.22,12.16,15.22a11.25,11.25,0,0,0,11-8.93,12.76,12.76,0,0,0,.34-3.23Z"/><path class="cls-1" d="M319.42,505.14c.17,10.11,6.63,14.28,14.12,14.28a27.07,27.07,0,0,0,11.39-2.13l1.27,5.36a33.29,33.29,0,0,1-13.68,2.55c-12.67,0-20.24-8.33-20.24-20.74s7.31-22.19,19.3-22.19c13.43,0,17,11.82,17,19.38a29.67,29.67,0,0,1-.25,3.49Zm21.94-5.36c.08-4.76-2-12.15-10.37-12.15-7.57,0-10.89,7-11.48,12.15Z"/><path class="cls-1" d="M405.19,522.82a27.54,27.54,0,0,1-11.82,2.38c-12.41,0-20.48-8.42-20.48-21s8.67-21.84,22.1-21.84a25,25,0,0,1,10.37,2.12l-1.7,5.78a17.34,17.34,0,0,0-8.67-1.95c-9.44,0-14.54,7-14.54,15.55,0,9.52,6.12,15.39,14.28,15.39a21.39,21.39,0,0,0,9.19-2Z"/><path class="cls-1" d="M450.67,503.44c0,15.21-10.55,21.85-20.49,21.85-11.14,0-19.72-8.17-19.72-21.17,0-13.77,9-21.85,20.4-21.85C442.68,482.27,450.67,490.86,450.67,503.44Zm-32.65.42c0,9,5.19,15.81,12.5,15.81,7.14,0,12.5-6.71,12.5-16,0-7-3.49-15.81-12.33-15.81S418,496,418,503.86Z"/><path class="cls-1" d="M489.43,522.82a27.62,27.62,0,0,1-11.82,2.38c-12.41,0-20.49-8.42-20.49-21s8.67-21.84,22.1-21.84a25.07,25.07,0,0,1,10.38,2.12l-1.7,5.78a17.41,17.41,0,0,0-8.68-1.95c-9.43,0-14.53,7-14.53,15.55,0,9.52,6.12,15.39,14.28,15.39a21.3,21.3,0,0,0,9.18-2Z"/><path class="cls-1" d="M506.51,471.65a4.64,4.64,0,0,1-9.27,0,4.56,4.56,0,0,1,4.68-4.68A4.44,4.44,0,0,1,506.51,471.65Zm-8.33,52.7V483.21h7.48v41.14Z"/><path class="cls-1" d="M518.07,494.34c0-4.25-.09-7.73-.34-11.13h6.63l.42,6.8H525a15.13,15.13,0,0,1,13.6-7.74c5.7,0,14.54,3.4,14.54,17.51v24.57h-7.48V500.63c0-6.63-2.47-12.15-9.52-12.15a10.62,10.62,0,0,0-10,7.65,10.72,10.72,0,0,0-.51,3.48v24.74h-7.48Z"/><path class="cls-1" d="M588,524.35l-.59-5.19h-.26a15.31,15.31,0,0,1-12.58,6.13c-8.33,0-12.58-5.87-12.58-11.82,0-10,8.84-15.39,24.74-15.3v-.85c0-3.4-.94-9.52-9.35-9.52a20.48,20.48,0,0,0-10.71,3.06l-1.7-4.93a25.53,25.53,0,0,1,13.51-3.66c12.58,0,15.64,8.59,15.64,16.83v15.39a56.89,56.89,0,0,0,.69,9.86Zm-1.1-21c-8.16-.17-17.43,1.28-17.43,9.27,0,4.84,3.23,7.14,7.06,7.14a10.23,10.23,0,0,0,9.94-6.89,7.62,7.62,0,0,0,.43-2.38Z"/><path class="cls-1" d="M376.66,110,431.17,0H146.85l54.51,110a88,88,0,0,0-68.61,85.72V428H445.27V195.68A88,88,0,0,0,376.66,110ZM233.56,183.3h43.08v67.76a56,56,0,0,1-43.08-54.56Zm67.82,0h43.08v13.2a56,56,0,0,1-43.08,54.56Zm44-25.66H233.56V132.89H345.37Zm45.19-132-40.92,82.49H228.51L187.59,25.66Zm30,376.68h-263V195.16a62.92,62.92,0,0,1,50.41-61.47v61.63c0,42.92,33,79.15,75.86,81.86a81.19,81.19,0,0,0,86.36-80.94V133.69a62.91,62.91,0,0,1,50.4,61.47Z"/><path class="cls-1" d="M233.56,377.59H345.37V302.44H233.56Zm24.75-49.49h61.4v24.75h-61.4V328.1Z"/><rect class="cls-1" x="370.12" y="302.44" width="24.75" height="24.75"/><rect class="cls-1" x="370.12" y="352.85" width="24.75" height="24.75"/></g></g></svg>