<svg xmlns="http://www.w3.org/2000/svg" viewBox="0 0 475.92 580.09"><defs><style>.cls-1{fill:#1d73be;}</style></defs><title>smartphones-categoria@</title><g id="Capa_2" data-name="Capa 2"><g id="Capa_1-2" data-name="Capa 1"><path class="cls-1" d="M1.89,553.94a26.49,26.49,0,0,0,13.42,3.79c7.65,0,12.12-4,12.12-9.89,0-5.42-3.09-8.52-10.92-11.53C7.05,533,1.2,528.06,1.2,519.89c0-9,7.49-15.74,18.75-15.74,5.94,0,10.24,1.38,12.82,2.84l-2.07,6.1a23.1,23.1,0,0,0-11-2.75c-7.91,0-10.92,4.73-10.92,8.69,0,5.42,3.53,8.08,11.53,11.18,9.8,3.78,14.79,8.51,14.79,17,0,8.94-6.62,16.68-20.3,16.68-5.59,0-11.69-1.63-14.79-3.7Z"/><path class="cls-1" d="M45.06,532.7c0-4.3-.08-7.82-.34-11.26h6.62l.35,6.7h.25c2.33-3.95,6.2-7.65,13.08-7.65a12.31,12.31,0,0,1,11.78,8.34H77a17.17,17.17,0,0,1,4.64-5.42,14.23,14.23,0,0,1,9.2-2.92c5.51,0,13.68,3.61,13.68,18.06v24.51h-7.4V539.5c0-8-2.92-12.82-9-12.82-4.3,0-7.65,3.18-8.94,6.88a12.29,12.29,0,0,0-.6,3.79v25.71h-7.4V538.12c0-6.62-2.92-11.44-8.68-11.44-4.73,0-8.17,3.79-9.38,7.57a10.45,10.45,0,0,0-.6,3.7v25.11h-7.4Z"/><path class="cls-1" d="M139.84,563.06l-.61-5.25H139a15.52,15.52,0,0,1-12.73,6.2c-8.43,0-12.73-5.94-12.73-12,0-10.06,8.94-15.56,25-15.48v-.86c0-3.44-1-9.63-9.46-9.63a20.67,20.67,0,0,0-10.84,3.1l-1.72-5a25.8,25.8,0,0,1,13.67-3.7c12.73,0,15.83,8.69,15.83,17v15.56a58.19,58.19,0,0,0,.69,10Zm-1.12-21.24c-8.26-.17-17.63,1.29-17.63,9.37,0,4.9,3.27,7.23,7.14,7.23a10.36,10.36,0,0,0,10.06-7,7.8,7.8,0,0,0,.43-2.41Z"/><path class="cls-1" d="M158.24,534.42c0-4.9-.09-9.11-.34-13h6.62l.26,8.17h.34c1.89-5.59,6.45-9.12,11.52-9.12a8.28,8.28,0,0,1,2.15.26v7.14a10.85,10.85,0,0,0-2.58-.26c-5.33,0-9.11,4-10.15,9.72a21.44,21.44,0,0,0-.34,3.52v22.19h-7.48Z"/><path class="cls-1" d="M197.54,509.48v12h10.84v5.76H197.54v22.44c0,5.16,1.46,8.09,5.68,8.09a16.67,16.67,0,0,0,4.38-.52l.35,5.68a18.64,18.64,0,0,1-6.71,1c-3.53,0-6.37-1.12-8.17-3.18-2.15-2.24-2.93-5.94-2.93-10.84V527.2h-6.45v-5.76h6.45v-10Z"/><path class="cls-1" d="M216.89,535c0-5.33-.17-9.63-.34-13.58h6.79l.34,7.13h.17c3.1-5.07,8-8.08,14.8-8.08,10.06,0,17.63,8.51,17.63,21.16,0,15-9.12,22.36-18.92,22.36-5.51,0-10.32-2.41-12.82-6.54h-.17v22.62h-7.48Zm7.48,11.1a16.2,16.2,0,0,0,.35,3.09,11.67,11.67,0,0,0,11.35,8.86c8,0,12.64-6.53,12.64-16.08,0-8.34-4.39-15.48-12.39-15.48a12.08,12.08,0,0,0-11.43,9.37,12.26,12.26,0,0,0-.52,3.1Z"/><path class="cls-1" d="M265.82,502h7.57v26h.17a14.1,14.1,0,0,1,5.42-5.33,15.58,15.58,0,0,1,7.74-2.15c5.59,0,14.53,3.44,14.53,17.8v24.77h-7.56V539.15c0-6.71-2.5-12.38-9.64-12.38a10.88,10.88,0,0,0-10.15,7.57,9.35,9.35,0,0,0-.51,3.61v25.11h-7.57Z"/><path class="cls-1" d="M351.22,541.9c0,15.4-10.67,22.11-20.73,22.11-11.26,0-19.95-8.26-19.95-21.42,0-13.93,9.12-22.1,20.64-22.1C343.13,520.49,351.22,529.18,351.22,541.9Zm-33,.43c0,9.12,5.25,16,12.65,16,7.22,0,12.64-6.79,12.64-16.17,0-7-3.53-16-12.47-16S318.19,534.42,318.19,542.33Z"/><path class="cls-1" d="M360.77,532.7c0-4.3-.09-7.82-.35-11.26h6.71l.43,6.88h.17a15.3,15.3,0,0,1,13.76-7.83c5.76,0,14.71,3.44,14.71,17.72v24.85h-7.57v-24c0-6.71-2.5-12.3-9.63-12.3A11.11,11.11,0,0,0,368.33,538v25h-7.56Z"/><path class="cls-1" d="M412.71,543.62c.17,10.24,6.71,14.45,14.27,14.45a27.3,27.3,0,0,0,11.53-2.15l1.29,5.42A33.83,33.83,0,0,1,426,563.92c-12.81,0-20.47-8.43-20.47-21s7.4-22.45,19.53-22.45c13.58,0,17.2,12,17.2,19.61a29.47,29.47,0,0,1-.26,3.52Zm22.19-5.41c.08-4.82-2-12.3-10.5-12.3-7.65,0-11,7.05-11.61,12.3Z"/><path class="cls-1" d="M450.55,555.32a19.82,19.82,0,0,0,10,3c5.51,0,8.09-2.75,8.09-6.19,0-3.61-2.15-5.59-7.74-7.66-7.48-2.66-11-6.79-11-11.78,0-6.71,5.42-12.21,14.36-12.21a20.69,20.69,0,0,1,10.23,2.58l-1.89,5.5a16.2,16.2,0,0,0-8.51-2.4c-4.47,0-7,2.58-7,5.67,0,3.44,2.5,5,7.91,7,7.23,2.76,10.93,6.37,10.93,12.56,0,7.31-5.68,12.47-15.57,12.47a23.76,23.76,0,0,1-11.7-2.84Z"/><path class="cls-1" d="M341.44,0H145.3a34,34,0,0,0-33.93,34V433a33.94,33.94,0,0,0,33.93,34H341.44a34,34,0,0,0,33.93-34V34A34,34,0,0,0,341.44,0ZM196.22,21h94.7c2.39,0,4.34,3.57,4.34,8s-1.95,8-4.34,8h-94.7c-2.41,0-4.32-3.59-4.32-8S193.81,21,196.22,21Zm47.35,412.28a21.69,21.69,0,1,1,21.65-21.7A21.72,21.72,0,0,1,243.57,433.28ZM350.37,359h-213V57h213Z"/></g></g></svg>