<svg xmlns="http://www.w3.org/2000/svg" viewBox="0 0 335.83 556.01"><defs><style>.cls-1{fill:#1d73be;}</style></defs><title>tablets-categoria@</title><g id="Capa_2" data-name="Capa 2"><g id="Capa_1-2" data-name="Capa 1"><path class="cls-1" d="M59.12,503.46H41.49V497.1H84.4v6.36H66.68v51.6H59.12Z"/><path class="cls-1" d="M108.14,555.06l-.61-5.25h-.25A15.52,15.52,0,0,1,94.55,556c-8.43,0-12.73-5.94-12.73-12,0-10.06,8.94-15.56,25-15.48v-.86c0-3.44-.95-9.63-9.46-9.63a20.67,20.67,0,0,0-10.84,3.1l-1.72-5a25.8,25.8,0,0,1,13.67-3.7c12.73,0,15.83,8.69,15.83,17v15.56a58.19,58.19,0,0,0,.69,10ZM107,533.82c-8.26-.17-17.63,1.29-17.63,9.37,0,4.9,3.27,7.23,7.14,7.23a10.36,10.36,0,0,0,10.06-7A7.8,7.8,0,0,0,107,541Z"/><path class="cls-1" d="M126.2,555.06c.17-2.84.34-7,.34-10.75V494H134v26.14h.17c2.67-4.64,7.49-7.65,14.19-7.65,10.32,0,17.63,8.6,17.55,21.24,0,14.88-9.38,22.28-18.66,22.28-6,0-10.84-2.33-13.94-7.83h-.25l-.35,6.88ZM134,538.38a13.61,13.61,0,0,0,.35,2.75A11.68,11.68,0,0,0,145.72,550c7.91,0,12.64-6.45,12.64-16,0-8.34-4.3-15.48-12.39-15.48a12.08,12.08,0,0,0-11.52,9.29,15,15,0,0,0-.43,3.09Z"/><path class="cls-1" d="M175.47,494H183v61.06h-7.57Z"/><path class="cls-1" d="M200,535.62c.17,10.24,6.71,14.45,14.28,14.45a27.29,27.29,0,0,0,11.52-2.15l1.29,5.42a33.79,33.79,0,0,1-13.85,2.58c-12.81,0-20.46-8.43-20.46-21s7.39-22.45,19.52-22.45c13.59,0,17.2,12,17.2,19.61a27.48,27.48,0,0,1-.26,3.52Zm22.19-5.41c.08-4.82-2-12.3-10.49-12.3-7.66,0-11,7.05-11.61,12.3Z"/><path class="cls-1" d="M248,501.48v12H258.8v5.76H248v22.44c0,5.16,1.46,8.09,5.67,8.09a16.76,16.76,0,0,0,4.39-.52l.34,5.68a18.54,18.54,0,0,1-6.7,1c-3.53,0-6.37-1.12-8.17-3.18-2.15-2.24-2.93-5.94-2.93-10.84V519.2h-6.45v-5.76h6.45v-10Z"/><path class="cls-1" d="M266.29,547.32a19.82,19.82,0,0,0,10,3c5.51,0,8.09-2.75,8.09-6.19,0-3.61-2.15-5.59-7.74-7.66-7.49-2.66-11-6.79-11-11.78,0-6.71,5.42-12.21,14.36-12.21a20.72,20.72,0,0,1,10.23,2.58l-1.89,5.5a16.2,16.2,0,0,0-8.51-2.4c-4.47,0-7,2.58-7,5.67,0,3.44,2.5,5,7.91,7,7.23,2.76,10.93,6.37,10.93,12.56,0,7.31-5.68,12.47-15.57,12.47a23.76,23.76,0,0,1-11.7-2.84Z"/><path class="cls-1" d="M304.69,0H31.13A31.11,31.11,0,0,0,0,31.18V427.84A31.13,31.13,0,0,0,31.13,459H304.66a31.16,31.16,0,0,0,31.17-31.17V31.18A31.13,31.13,0,0,0,304.69,0ZM168.22,447.31a18.53,18.53,0,1,1,18.53-18.52A18.51,18.51,0,0,1,168.22,447.31ZM305,393.57H31.75v-357H305Z"/></g></g></svg>